<?xml version="1.0" standalone="no"?>
<!DOCTYPE svg PUBLIC "-//W3C//DTD SVG 20010904//EN"
 "http://www.w3.org/TR/2001/REC-SVG-20010904/DTD/svg10.dtd">
<svg version="1.0" xmlns="http://www.w3.org/2000/svg"
 width="1024.000000pt" height="1024.000000pt" viewBox="0 0 1024.000000 1024.000000"
 preserveAspectRatio="xMidYMid meet">
<metadata>
Created by potrace 1.11, written by Peter Selinger 2001-2013
</metadata>
<g transform="translate(0.000000,1024.000000) scale(0.100000,-0.100000)"
fill="#000000" stroke="none">
<path d="M53 8943 c120 -250 553 -1111 637 -1268 261 -486 361 -651 534 -880
49 -66 95 -125 101 -132 5 -7 15 -18 20 -25 98 -126 247 -306 364 -438 138
-157 474 -483 555 -540 12 -8 28 -21 36 -29 27 -26 194 -146 275 -198 75 -48
223 -133 230 -133 2 0 38 -16 79 -35 42 -19 117 -48 167 -64 l92 -30 845 0
c465 0 849 2 853 4 4 3 0 29 -8 57 -23 84 -63 211 -72 233 -5 11 -20 49 -34
85 -34 89 -113 252 -156 325 -20 33 -42 73 -50 88 -59 114 -318 410 -466 534
-148 123 -604 455 -790 575 -38 24 -104 66 -145 93 -41 26 -97 63 -125 80 -43
28 -88 55 -163 100 -9 6 -55 33 -102 61 -88 53 -391 227 -492 283 -135 73
-168 91 -263 142 -197 105 -414 218 -647 335 -104 52 -188 96 -188 98 0 5 6 3
465 -179 295 -117 690 -283 810 -340 28 -13 118 -55 202 -94 200 -93 556 -276
718 -369 72 -41 146 -84 165 -95 68 -38 306 -192 420 -271 227 -157 386 -283
500 -396 124 -122 140 -141 210 -235 25 -33 48 -61 53 -63 4 -2 7 -7 7 -11 0
-5 23 -43 51 -86 67 -101 187 -336 228 -445 54 -142 117 -342 131 -412 8 -37
17 -65 20 -63 4 3 13 33 20 67 16 74 11 56 39 148 85 274 210 543 354 757 125
187 271 346 447 489 136 110 467 342 627 440 86 52 250 150 268 160 11 6 57
31 102 57 101 57 580 301 683 347 41 18 122 55 179 82 57 26 107 48 111 48 4
0 20 6 36 14 68 34 417 180 634 265 129 51 244 97 255 102 52 23 199 78 202
75 2 -2 -97 -54 -219 -116 -123 -62 -241 -123 -263 -135 -22 -12 -106 -57
-186 -98 -81 -42 -162 -85 -180 -95 -19 -10 -70 -38 -114 -62 -129 -70 -404
-224 -445 -250 -8 -5 -46 -27 -85 -49 -376 -218 -825 -515 -1191 -791 -203
-153 -242 -187 -364 -310 -217 -218 -390 -485 -513 -791 -62 -153 -131 -376
-118 -383 3 -2 386 -4 851 -4 l845 0 80 25 c354 110 720 358 1120 758 181 181
203 204 335 360 47 55 87 102 90 105 12 11 172 212 277 350 115 152 234 328
296 442 21 37 59 105 85 150 27 46 74 130 104 188 31 58 81 152 113 210 107
199 648 1290 639 1290 -2 0 -125 -43 -272 -96 -147 -53 -346 -124 -442 -159
-96 -34 -195 -69 -220 -78 -25 -8 -124 -43 -220 -77 -564 -198 -1034 -356
-1780 -599 -256 -84 -483 -158 -505 -166 -231 -80 -401 -142 -505 -183 -140
-56 -379 -169 -434 -207 -20 -14 -39 -25 -41 -25 -9 0 -111 -75 -173 -127
-259 -217 -395 -499 -461 -960 -12 -79 -23 -173 -26 -210 -3 -38 -8 -93 -11
-125 -5 -65 -12 -211 -15 -315 -3 -106 -19 -89 -20 20 -1 95 -2 113 -13 282
-8 115 -13 159 -27 270 -6 44 -13 98 -16 120 -19 147 -82 375 -141 505 -27 61
-107 199 -121 210 -3 3 -19 22 -35 43 -99 133 -303 286 -528 394 -196 95 -296
137 -558 230 -139 50 -155 55 -765 254 -628 206 -1037 343 -1372 460 -128 44
-231 80 -588 204 -137 48 -263 93 -280 100 -16 7 -57 22 -90 33 -58 20 -128
45 -422 151 -78 28 -144 51 -147 51 -2 0 19 -48 47 -107z m5073 -3328 c-2 -35
-11 -39 -12 -4 -1 16 2 29 6 29 4 0 6 -11 6 -25z"/>
<path d="M3050 5039 c-196 -66 -348 -144 -565 -292 -33 -23 -62 -44 -65 -47
-3 -3 -18 -13 -33 -23 -73 -47 -290 -239 -452 -402 -323 -322 -763 -865 -930
-1147 -12 -21 -75 -130 -105 -183 -48 -86 -102 -181 -111 -195 -5 -8 -18 -33
-29 -55 -11 -22 -47 -89 -80 -150 -60 -111 -560 -1105 -636 -1267 -23 -49 -39
-88 -35 -88 6 0 411 145 446 160 11 5 67 25 125 45 58 21 161 57 230 82 69 25
188 67 265 93 77 26 212 73 300 105 258 91 1056 361 1095 370 8 2 49 16 90 30
41 15 80 28 85 29 6 2 17 5 25 8 8 3 71 24 140 46 871 281 1155 384 1410 511
412 205 622 426 745 786 45 132 84 310 100 455 4 36 9 74 11 85 2 11 7 56 10
100 3 44 7 94 9 110 5 33 18 327 19 417 1 78 10 62 12 -20 2 -90 14 -343 19
-412 12 -144 16 -187 20 -210 2 -14 9 -63 15 -110 9 -69 35 -208 55 -291 10
-46 69 -208 95 -265 147 -313 373 -507 840 -717 123 -56 471 -182 705 -257 88
-28 167 -54 175 -57 8 -4 17 -7 20 -8 10 -2 607 -198 880 -289 473 -157 1612
-551 1690 -585 14 -6 95 -35 180 -65 271 -95 307 -108 374 -135 57 -23 78 -71
-291 669 -133 267 -268 535 -300 595 -33 61 -83 155 -113 210 -47 88 -76 141
-152 275 -143 250 -233 384 -437 644 -318 407 -637 747 -921 982 -135 111
-429 314 -456 314 -2 0 -21 10 -42 23 -51 32 -211 100 -307 130 l-80 26 -851
-1 -851 0 14 -57 c69 -271 209 -586 357 -801 101 -147 302 -370 421 -468 86
-71 427 -325 560 -417 364 -254 915 -590 1360 -830 39 -20 97 -52 130 -71 97
-53 352 -186 608 -314 130 -66 237 -122 237 -125 0 -3 -24 5 -52 16 -29 12
-60 23 -68 26 -33 11 -277 106 -305 118 -16 7 -99 41 -183 74 -186 74 -540
226 -678 291 -56 26 -130 60 -165 76 -218 95 -743 376 -994 532 -694 432
-1001 723 -1240 1174 -101 192 -220 506 -255 676 -7 34 -16 62 -20 62 -4 0
-11 -17 -15 -37 -5 -21 -9 -43 -11 -49 -35 -171 -223 -642 -281 -706 -9 -10
-13 -18 -10 -18 8 0 -89 -150 -155 -242 -108 -149 -264 -309 -408 -420 -19
-14 -57 -44 -85 -65 -207 -160 -516 -361 -820 -535 -154 -88 -597 -316 -740
-380 -44 -20 -118 -54 -165 -76 -47 -22 -166 -74 -265 -117 -99 -42 -193 -83
-210 -90 -51 -24 -770 -308 -810 -320 -20 -7 59 35 345 180 156 79 542 283
635 335 28 15 77 42 110 60 117 64 402 228 514 296 63 38 126 76 140 84 238
139 587 376 900 609 253 189 346 266 451 379 84 89 230 276 271 347 13 22 26
42 29 45 10 9 61 105 116 220 76 156 125 288 168 447 l24 92 -856 -1 -857 -1
-85 -28z"/>
</g>
</svg>
